<?xml version="1.0" encoding="UTF-8" standalone="no"?>
<!-- Created with Inkscape (http://www.inkscape.org/) -->

<svg
   xmlns:dc="http://purl.org/dc/elements/1.1/"
   xmlns:cc="http://creativecommons.org/ns#"
   xmlns:rdf="http://www.w3.org/1999/02/22-rdf-syntax-ns#"
   xmlns:svg="http://www.w3.org/2000/svg"
   xmlns="http://www.w3.org/2000/svg"
   xmlns:sodipodi="http://sodipodi.sourceforge.net/DTD/sodipodi-0.dtd"
   xmlns:inkscape="http://www.inkscape.org/namespaces/inkscape"
   width="297mm"
   height="70mm"
   viewBox="0 0 297 70"
   version="1.1"
   id="svg8"
   inkscape:version="0.92.3 (2405546, 2018-03-11)"
   sodipodi:docname="kubbix_logo.svg">
  <defs
     id="defs2" />
  <sodipodi:namedview
     id="base"
     pagecolor="#ffffff"
     bordercolor="#666666"
     borderopacity="1.0"
     inkscape:pageopacity="0.0"
     inkscape:pageshadow="2"
     inkscape:zoom="0.98994949"
     inkscape:cx="377.3825"
     inkscape:cy="176.07862"
     inkscape:document-units="mm"
     inkscape:current-layer="layer1"
     showgrid="false"
     inkscape:window-width="1920"
     inkscape:window-height="1017"
     inkscape:window-x="-8"
     inkscape:window-y="-8"
     inkscape:window-maximized="1" />
  <metadata
     id="metadata5">
    <rdf:RDF>
      <cc:Work
         rdf:about="">
        <dc:format>image/svg+xml</dc:format>
        <dc:type
           rdf:resource="http://purl.org/dc/dcmitype/StillImage" />
        <dc:title></dc:title>
      </cc:Work>
    </rdf:RDF>
  </metadata>
  <g
     inkscape:label="Layer 1"
     inkscape:groupmode="layer"
     id="layer1"
     transform="translate(0,-227)">
    <path
       style="fill:#000000;stroke-width:0.13856776"
       d="m 12.154276,296.30852 c -0.103437,-0.17502 1.755385,-2.10895 2.036758,-2.11908 0.07453,-0.004 1.172137,-0.19695 2.43913,-0.43168 1.266991,-0.23476 2.852426,-0.5204 3.523187,-0.63478 0.67076,-0.11438 1.493967,-0.26709 1.829347,-0.33935 0.335381,-0.0723 1.189076,-0.23401 1.8971,-0.3594 0.708026,-0.12539 1.59221,-0.28797 1.964855,-0.3613 1.284323,-0.25268 1.964855,-0.30896 1.964855,-0.16249 0,0.0783 -0.396283,0.55487 -0.880629,1.05885 -0.617849,0.64291 -1.012094,0.93824 -1.321195,0.98971 -0.242312,0.0403 -0.897903,0.1435 -1.456871,0.22922 -0.558968,0.0857 -1.229728,0.21525 -1.49058,0.28788 -0.26085,0.0727 -0.870633,0.20391 -1.355071,0.29172 -0.484439,0.0879 -1.12471,0.21472 -1.422826,0.28199 -0.298116,0.0673 -1.121322,0.22569 -1.829348,0.35205 -0.708024,0.12637 -1.56172,0.28644 -1.897099,0.35573 -0.615849,0.12722 -2.49805,0.48479 -3.406039,0.64706 -0.324272,0.0579 -0.527815,0.0285 -0.595574,-0.0861 z m -1.213474,-0.31181 c -0.03152,-0.0974 -0.126934,-0.5597 -0.212038,-1.0273 -0.0851,-0.4676 -0.20331,-1.07336 -0.262686,-1.34612 -0.17584,-0.80782 -1.091801,-5.26022 -1.2243166,-5.95129 -0.067251,-0.35071 -0.2186211,-1.084 -0.3363865,-1.62953 -0.1177652,-0.54554 -0.26985,-1.31071 -0.3379646,-1.70037 -0.068116,-0.38967 -0.2314065,-1.24465 -0.3628693,-1.89997 l -0.2390227,-1.19145 1.215657,-1.17952 c 0.6686116,-0.64873 1.2563847,-1.18061 1.3061637,-1.18196 0.08809,-0.002 0.370343,1.21953 0.915906,3.96508 0.147118,0.74037 0.395493,1.95188 0.551947,2.69226 0.285954,1.35318 0.667361,3.21464 1.277462,6.23467 0.181057,0.89625 0.364491,1.72517 0.407635,1.84208 0.0519,0.1406 -0.228303,0.50029 -0.827842,1.06273 -0.498454,0.46759 -1.028209,0.99365 -1.177232,1.169 -0.29934,0.35222 -0.606052,0.4148 -0.694413,0.14169 z m 34.078121,-5.8962 c 0,-0.0671 0.434949,-0.54449 0.966557,-1.06084 0.93226,-0.9055 1.004855,-0.94641 2.046022,-1.15294 0.593708,-0.11777 1.129841,-0.18156 1.191405,-0.14178 0.06156,0.0398 0.253708,0.007 0.426982,-0.074 0.173275,-0.0805 1.382165,-0.33262 2.686423,-0.56035 1.304256,-0.22774 3.673937,-0.64449 5.265956,-0.92612 1.592021,-0.28162 2.930553,-0.47442 2.974517,-0.42845 0.04397,0.046 -0.37183,0.52172 -0.923986,1.0572 -0.719802,0.69808 -1.139768,0.99753 -1.483937,1.05811 -0.264007,0.0465 -1.33371,0.24546 -2.377117,0.44221 -3.577554,0.67462 -4.139579,0.77801 -4.643969,0.85433 -0.277918,0.042 -0.590457,0.10682 -0.694531,0.14396 -0.104069,0.0371 -0.56141,0.12569 -1.016304,0.19678 -0.454893,0.0711 -1.497838,0.25983 -2.317656,0.41942 -1.637743,0.31882 -2.100362,0.3568 -2.100362,0.17245 z M 32.145737,289.9528 c 0,-0.0723 0.411604,-0.50341 0.914674,-0.95812 0.503071,-0.45472 0.975652,-0.8979 1.050181,-0.98486 0.145737,-0.17005 0.677978,-0.28898 3.726449,-0.8327 1.080669,-0.19275 2.269745,-0.41341 2.64239,-0.49035 0.372644,-0.0769 1.22634,-0.2383 1.8971,-0.35856 0.670762,-0.12027 1.524458,-0.27693 1.897102,-0.34814 2.378414,-0.4545 2.50684,-0.46828 2.71137,-0.29078 0.315541,0.27383 0.248543,0.44747 -0.441824,1.14507 -0.731709,0.73938 -0.897096,0.82332 -1.930778,0.98003 -0.409909,0.0622 -1.614054,0.27977 -2.675876,0.48361 -2.967113,0.56959 -5.714769,1.07983 -6.538614,1.21421 -0.40991,0.0668 -1.050181,0.18578 -1.422825,0.2643 -1.186656,0.24999 -1.829349,0.31194 -1.829349,0.17629 z m -14.07516,-1.04096 c -0.209803,-0.82504 -0.705342,-3.15524 -0.836197,-3.9321 -0.05907,-0.3507 -0.143286,-0.73329 -0.187141,-0.85019 -0.04386,-0.11689 -0.25572,-1.10524 -0.470812,-2.19631 -0.215092,-1.09107 -0.65392,-3.21716 -0.975177,-4.72465 l -0.5841,-2.74089 1.213027,-1.19021 c 1.10807,-1.08722 1.551798,-1.39378 1.551798,-1.07209 0,0.15837 1.133492,5.80564 1.767657,8.80681 0.0741,0.3507 0.218976,1.11587 0.321932,1.70038 0.102962,0.5845 0.354709,1.82299 0.559449,2.75219 l 0.372252,1.68948 -0.460465,0.4143 c -0.253254,0.22788 -0.799276,0.75883 -1.213377,1.17991 -0.414101,0.42108 -0.787291,0.76559 -0.82931,0.76559 -0.04202,0 -0.145309,-0.27099 -0.229536,-0.60222 z m 1.201977,0.47198 c 0,-0.0716 0.463825,-0.57276 1.030722,-1.11363 1.02452,-0.97748 1.037362,-0.98447 2.134238,-1.16021 0.606935,-0.0972 1.303596,-0.19933 1.548139,-0.22686 0.244542,-0.0275 0.492228,-0.0807 0.550416,-0.11842 0.05819,-0.0376 0.711802,-0.16808 1.452479,-0.28994 0.740676,-0.12187 1.834511,-0.31539 2.430741,-0.43004 0.596233,-0.11466 1.815797,-0.33764 2.710145,-0.49553 0.894349,-0.15786 2.111658,-0.37951 2.705134,-0.49253 0.593478,-0.113 1.108493,-0.17468 1.144483,-0.13707 0.03599,0.0376 -0.381054,0.53846 -0.926762,1.11293 -0.943481,0.99321 -1.029614,1.04914 -1.754265,1.13886 -0.419137,0.0519 -0.945004,0.15204 -1.16859,0.22254 -0.223586,0.0704 -0.955326,0.22711 -1.626086,0.34804 -0.67076,0.12095 -1.554945,0.28332 -1.964855,0.36083 -7.554774,1.42862 -8.265939,1.53883 -8.265939,1.28103 z m 1.961068,-2.73915 c -0.03467,-0.0974 -0.118267,-0.46404 -0.18577,-0.81475 -0.300319,-1.56025 -0.701001,-3.51286 -0.81415,-3.96753 -0.06787,-0.27277 -0.194197,-0.84663 -0.280701,-1.27526 -0.0865,-0.42865 -0.247066,-1.19381 -0.356807,-1.70038 -0.109744,-0.50657 -0.346803,-1.6862 -0.526805,-2.6214 -0.180001,-0.9352 -0.456268,-2.2959 -0.613926,-3.02376 -0.157658,-0.72785 -0.254938,-1.4098 -0.216178,-1.51544 0.03877,-0.10561 0.27186,-0.22757 0.517994,-0.27103 0.246137,-0.0435 1.453662,-0.27319 2.683389,-0.51055 1.229728,-0.23735 2.754186,-0.52707 3.387682,-0.6438 0.633495,-0.11674 1.609147,-0.30525 2.168114,-0.41891 0.558967,-0.11368 1.351685,-0.27057 1.761594,-0.34866 0.40991,-0.0781 1.404996,-0.27423 2.211303,-0.43588 0.806306,-0.16167 1.543753,-0.26274 1.638768,-0.22461 0.179367,0.0719 0.201975,0.16702 0.983235,4.13359 0.260948,1.32488 0.566704,2.85521 0.679459,3.40075 0.112755,0.54553 0.250218,1.24692 0.305473,1.55866 0.05526,0.31174 0.337145,1.79081 0.626426,3.28685 0.289279,1.49602 0.492261,2.75528 0.45107,2.79835 -0.07986,0.0835 -0.935451,0.28198 -2.152982,0.49945 -0.409909,0.0731 -1.05018,0.19405 -1.422826,0.26855 -0.958827,0.19167 -4.072395,0.77741 -6.775359,1.27461 -1.266993,0.23305 -2.578026,0.49071 -2.913405,0.57254 -0.807841,0.19716 -1.079617,0.19213 -1.155598,-0.0213 z m 16.339266,-3.75496 c -0.09456,-0.44813 -0.283172,-1.32487 -0.419138,-1.94835 -0.135964,-0.62347 -0.287203,-1.35675 -0.336083,-1.62952 -0.04889,-0.27276 -0.200413,-1.00604 -0.33674,-1.62952 -0.136325,-0.62348 -0.348914,-1.64369 -0.47242,-2.26715 -0.123507,-0.62348 -0.277944,-1.38864 -0.343197,-1.70037 -0.06524,-0.31174 -0.183747,-0.88562 -0.263323,-1.27528 -0.07957,-0.38967 -0.295982,-1.39306 -0.480902,-2.22976 -0.18492,-0.83669 -0.336218,-1.57424 -0.336218,-1.63895 0,-0.11075 0.334299,-0.19056 2.845652,-0.67943 0.558967,-0.10881 1.321195,-0.26303 1.69384,-0.34269 0.372644,-0.0796 1.683678,-0.33875 2.913405,-0.57576 2.336405,-0.45026 3.847252,-0.74316 5.217027,-1.01138 0.447174,-0.0875 1.023098,-0.16427 1.279831,-0.1705 0.457279,-0.011 0.470211,0.005 0.634771,0.76802 0.365085,1.69378 0.7225,3.41041 1.062089,5.10112 0.462962,2.30492 0.55318,2.74384 0.946542,4.60516 0.181171,0.85726 0.431714,2.06878 0.556761,2.69224 0.125047,0.62347 0.276577,1.30502 0.336734,1.51454 0.134211,0.46745 -0.01858,0.61483 -0.751512,0.72492 -0.571823,0.0858 -2.09976,0.37964 -7.520648,1.44584 -3.759439,0.73941 -5.525062,1.06025 -5.839046,1.06104 -0.1522,4.1e-4 -0.265993,-0.23878 -0.387425,-0.81422 z m 14.428544,0.53793 c -0.03516,-0.0595 0.38007,-0.55839 0.922753,-1.10863 0.775288,-0.7861 1.101092,-1.02032 1.520606,-1.09318 0.293652,-0.0509 0.991248,-0.18551 1.550214,-0.29893 1.270877,-0.25784 2.232722,-0.44563 2.845651,-0.55554 0.260852,-0.0468 1.663353,-0.30662 3.116667,-0.57743 1.453315,-0.27081 2.977771,-0.55317 3.387679,-0.62745 0.409911,-0.0743 0.958312,-0.19952 1.218671,-0.27826 0.26036,-0.0788 0.687207,-0.14024 0.94855,-0.13666 l 0.47517,0.007 -0.813043,0.7754 c -1.493066,1.42394 -1.955937,1.65281 -3.726447,1.84258 -0.620435,0.0665 -2.782683,0.46318 -3.387681,0.6215 -0.514211,0.13456 -3.915425,0.75836 -5.555795,1.01898 -0.558967,0.0888 -1.336423,0.24197 -1.727677,0.34038 -0.391256,0.0985 -0.740148,0.13025 -0.775318,0.0708 z m 20.389945,-8.65012 v -6.09298 h 5.82681 5.826811 v 6.09298 6.09298 h -5.826811 -5.82681 z m 26.244685,6.00005 c -0.05053,-0.0528 -0.09176,-2.796 -0.09176,-6.09604 v -6.00003 l 5.792928,0.0369 5.79294,0.037 v 6.02214 6.02214 l -5.70115,0.0369 c -3.13562,0.0203 -5.742446,-0.007 -5.792928,-0.0591 z m 16.575578,-6.00005 v -6.09602 l 5.79295,0.0369 5.79293,0.037 v 6.02214 6.02214 l -5.79293,0.0369 -5.79295,0.037 z m 13.27971,0 v -6.09298 h 5.82682 5.82681 v 6.09298 6.09298 h -5.82681 -5.82682 z m 12.8732,0 v -6.09298 h 5.8268 5.82681 v 6.09298 6.09298 h -5.82681 -5.8268 z m 16.53188,-9e-4 v -6.09451 l 5.79292,0.0369 5.79293,0.037 0.0354,6.05756 0.0354,6.05756 h -5.82827 -5.82825 z m 13.27969,9e-4 v -6.09298 h 5.82681 5.82681 v 6.09298 6.09298 h -5.82681 -5.82681 z m 12.87319,0 v -6.09298 h 5.82681 5.82681 v 6.09298 6.09298 h -5.82681 -5.82681 z m 15.85434,0 v -6.09298 h 5.82681 5.8268 v 6.09298 6.09298 h -5.8268 -5.82681 z m 13.3715,6.00005 c -0.0506,-0.0528 -0.0918,-2.796 -0.0918,-6.09604 v -6.00003 l 5.79294,0.0369 5.79292,0.037 v 6.02214 6.02214 l -5.70114,0.0369 c -3.13563,0.0203 -5.74245,-0.007 -5.79293,-0.0591 z m 12.87174,-9e-4 c -0.0497,-0.0519 -0.0903,-2.79381 -0.0903,-6.09299 v -5.99853 h 5.82681 5.82681 v 6.09298 6.093 h -5.73647 c -3.15507,0 -5.77714,-0.0426 -5.8268,-0.0945 z m 16.639,-0.0827 c -0.0358,-0.0975 -0.0491,-2.82337 -0.0296,-6.05757 l 0.0354,-5.88035 5.79293,-0.037 5.79294,-0.0369 v 6.0945 6.09451 h -5.76331 c -4.4872,0 -5.7777,-0.0393 -5.82835,-0.1772 z m 15.79238,-5.91579 v -6.09298 h 5.75906 5.75905 v 6.09298 6.09299 h -5.75905 -5.75906 z m 26.08618,5.63248 c -0.0434,-0.25329 -0.0615,-2.97919 -0.04,-6.05756 l 0.039,-5.59705 5.79294,-0.037 5.79292,-0.0369 v 6.0945 6.09451 h -5.75292 -5.7529 z m -230.628703,0.18659 c -0.04299,-0.0728 -0.130901,-0.40748 -0.195373,-0.74391 -0.105388,-0.54993 -0.469278,-2.36472 -0.818753,-4.08327 -0.07132,-0.3507 -0.199514,-1.02023 -0.284885,-1.48782 -0.08537,-0.46761 -0.297141,-1.5197 -0.470601,-2.33803 -0.173457,-0.81829 -0.388787,-2.0298 -0.478512,-2.69224 -0.08972,-0.66242 -0.209093,-1.26818 -0.265265,-1.34612 -0.111732,-0.15501 -0.581029,-2.4853 -0.514477,-2.55463 0.05007,-0.0522 2.639338,-0.55123 4.038574,-0.77845 0.558968,-0.0908 2.144402,-0.37772 3.523188,-0.63767 4.802974,-0.90553 6.807524,-1.22426 6.925262,-1.10113 0.110187,0.11521 0.307359,0.98155 0.928588,4.07999 0.140628,0.70142 0.442347,2.16797 0.670485,3.25905 0.228137,1.09107 0.601294,2.94022 0.829233,4.10923 0.227942,1.16899 0.468219,2.28487 0.53395,2.47971 0.06573,0.19483 0.156624,0.58914 0.20198,0.87625 0.07885,0.49912 0.06589,0.52154 -0.295292,0.51079 -0.207767,-0.007 -0.508953,0.0323 -0.669303,0.0855 -0.363394,0.12061 -2.593052,0.4974 -3.501354,0.59171 -0.372646,0.0386 -0.829982,0.11061 -1.016305,0.15985 -0.186322,0.0492 -0.386972,0.0781 -0.445888,0.0643 -0.05892,-0.0138 -0.217312,0.0366 -0.351991,0.11189 -0.134681,0.0755 -0.604792,0.20098 -1.044692,0.2791 -0.439901,0.0781 -1.653514,0.3074 -2.696919,0.50947 -2.280103,0.44156 -4.141402,0.77273 -4.36211,0.77611 -0.08876,9e-4 -0.196556,-0.0571 -0.23954,-0.12975 z M 7.4242191,278.28454 c -0.027884,-0.0974 -0.1779556,-0.84665 -0.3334882,-1.66494 -0.1555316,-0.81831 -0.37787,-1.93418 -0.4940836,-2.47971 -0.1162148,-0.54554 -0.3294874,-1.59764 -0.4739403,-2.33801 -0.144452,-0.74037 -0.3557939,-1.79247 -0.4696481,-2.33801 -1.1752717,-5.63134 -1.2270568,-5.96264 -0.97348,-6.22779 0.115419,-0.1207 0.2452248,-0.21945 0.2884572,-0.21945 0.043234,0 0.4745266,-0.4304 0.9584305,-0.95645 0.8426215,-0.91601 0.8884117,-0.94483 1.0828854,-0.6814 0.1116829,0.15128 0.2030609,0.43863 0.2030609,0.63856 0,0.19994 0.06161,0.58628 0.1369132,0.85853 0.075308,0.27225 0.1953847,0.84571 0.2668497,1.27434 0.071463,0.42864 0.225229,1.22569 0.3416975,1.77122 0.1164685,0.54555 0.3378262,1.62952 0.4919058,2.40886 0.3003015,1.51893 0.6017069,3.01 0.8163161,4.03838 0.073191,0.3507 0.1858024,0.95645 0.2502563,1.34613 0.064459,0.38967 0.2082731,1.12267 0.3195983,1.62889 l 0.2024092,0.92041 -0.4982999,0.4789 c -0.89697,0.86207 -1.8807506,1.71866 -1.9738641,1.71866 -0.050194,0 -0.11409,-0.0797 -0.1419759,-0.17712 z m 3.5246499,-3.10557 c -0.05924,-0.1933 -0.443134,-2.02463 -0.901012,-4.29813 -0.1412617,-0.7014 -0.5013621,-2.42302 -0.8002216,-3.82583 -0.2988606,-1.4028 -0.7329136,-3.50175 -0.9645616,-4.66432 l -0.4211777,-2.11377 1.1600072,-1.18069 c 0.6380047,-0.64938 1.2212587,-1.1807 1.2961217,-1.1807 0.136866,0 0.318455,0.57854 0.540327,1.72145 0.506456,2.60891 0.964886,4.86585 1.722602,8.48076 0.33488,1.59765 0.667484,3.22362 0.73912,3.61329 0.07164,0.38966 0.162913,0.8171 0.202839,0.94985 0.05104,0.1697 -0.274326,0.59042 -1.095791,1.41697 -1.267157,1.275 -1.391071,1.36562 -1.478253,1.08112 z m 6.629958,-6.10477 c -0.03252,-0.0974 -0.251714,-1.16546 -0.487088,-2.37343 -0.235377,-1.20798 -0.481413,-2.45137 -0.546746,-2.76311 -0.06533,-0.31173 -0.176976,-0.8856 -0.248091,-1.27526 -0.291121,-1.59518 -1.242115,-6.2909 -1.429998,-7.0609 -0.215762,-0.88426 -0.266401,-1.79434 -0.09997,-1.79654 0.05591,-7.2e-4 0.924837,-0.16369 1.930977,-0.36212 1.006141,-0.19842 2.134239,-0.41733 2.506884,-0.48648 0.372644,-0.0691 1.195851,-0.22738 1.829346,-0.35165 0.633497,-0.12429 1.487191,-0.28309 1.897102,-0.35293 0.40991,-0.0698 1.720941,-0.31797 2.913405,-0.55142 3.432188,-0.6719 3.273412,-0.65879 3.355092,-0.27685 0.0386,0.18049 0.315384,1.60345 0.615073,3.16213 0.299692,1.55867 0.58382,3.02523 0.631398,3.25903 0.04758,0.23381 0.16675,0.87145 0.264827,1.41699 0.184362,1.02546 1.039696,5.32348 1.283042,6.44724 0.07595,0.35069 0.09027,0.68762 0.03186,0.74872 -0.05843,0.0611 -0.405998,0.16611 -0.77238,0.23333 -0.366382,0.0673 -1.550334,0.29066 -2.631004,0.49652 -1.08067,0.20584 -2.269746,0.43195 -2.642391,0.50245 -0.372645,0.0704 -1.195852,0.22912 -1.829348,0.35251 -0.633495,0.12336 -1.822571,0.34745 -2.642388,0.49796 -0.81982,0.1505 -2.008896,0.37195 -2.642392,0.4921 -0.633496,0.12015 -1.168969,0.21853 -1.189941,0.21865 -0.02097,9e-5 -0.06473,-0.0795 -0.09727,-0.17694 z m 54.902889,-2.04281 c -0.04968,-0.0519 -0.09034,-2.79379 -0.09034,-6.09299 v -5.99852 h 5.826809 5.826811 v 6.09299 6.09299 h -5.736471 c -3.15506,0 -5.777125,-0.0426 -5.826808,-0.0945 z m 13.279706,0 c -0.04967,-0.0519 -0.09034,-2.79379 -0.09034,-6.09299 v -5.99852 h 5.826809 5.82681 v 5.86886 c 0,3.22787 -0.03702,5.96971 -0.08224,6.09299 -0.07315,0.19943 -0.705563,0.22413 -5.736464,0.22413 -3.109822,0 -5.694874,-0.0426 -5.744558,-0.0945 z m 29.540558,0 c -0.0497,-0.0519 -0.0903,-2.79448 -0.0903,-6.0945 v -6.00005 l 5.79294,0.037 5.79293,0.0369 0.0241,5.8598 c 0.0132,3.22289 -0.009,5.94879 -0.0484,6.05756 -0.0605,0.16485 -1.01369,0.19777 -5.72679,0.19777 -3.10982,0 -5.69487,-0.0425 -5.74456,-0.0945 z m 26.06257,-5.997 v -6.09451 h 5.82826 5.82827 l -0.0354,6.05757 -0.0354,6.05756 -5.79293,0.0369 -5.79294,0.037 z m 16.62366,5.99852 c -0.0506,-0.0528 -0.0918,-2.796 -0.0918,-6.09602 v -6.00005 l 5.79292,0.037 5.79293,0.0369 v 6.02214 6.02215 l -5.70113,0.0369 c -3.13564,0.0203 -5.74246,-0.007 -5.79294,-0.0591 z m 13.2797,0 c -0.0505,-0.0528 -0.0918,-2.79531 -0.0918,-6.09451 v -5.99852 h 5.82826 5.82827 l -0.0354,6.05757 -0.0354,6.05756 -5.70114,0.0369 c -3.13563,0.0203 -5.74245,-0.007 -5.79293,-0.0591 z m 28.72753,0 c -0.0506,-0.0528 -0.0918,-2.79531 -0.0918,-6.09451 v -5.99852 h 5.82826 5.82826 l -0.0354,6.05757 -0.0354,6.05756 -5.70113,0.0369 c -3.13564,0.0203 -5.74246,-0.007 -5.79294,-0.0591 z m 13.25046,-0.0827 c -0.0361,-0.0983 -0.0497,-2.82492 -0.0302,-6.05911 l 0.0354,-5.88036 5.79439,-0.037 5.7944,-0.0369 -0.0354,6.05909 -0.0354,6.05908 -5.72885,0.0369 c -4.51206,0.0291 -5.7428,-9e-4 -5.79447,-0.14177 z m 29.54057,0 c -0.0361,-0.0983 -0.0497,-2.82492 -0.0302,-6.05911 l 0.0354,-5.88036 5.79439,-0.037 5.79438,-0.0369 -0.0354,6.05909 -0.0354,6.05908 -5.72888,0.0369 c -4.51204,0.0291 -5.74278,-9e-4 -5.79445,-0.14177 z m 29.00253,-0.14316 c -0.0408,-0.17535 -0.0572,-2.90125 -0.0365,-6.05755 l 0.0377,-5.73876 5.79292,-0.037 5.79295,-0.0369 v 6.09451 6.09451 h -5.75647 -5.75648 z M 50.513441,262.7442 c -0.0425,-0.0719 -0.1364,-0.43854 -0.208669,-0.81476 -0.07227,-0.37621 -0.226015,-1.13037 -0.34166,-1.67591 -0.115643,-0.54553 -0.323281,-1.56575 -0.461418,-2.26716 -0.385225,-1.95602 -1.476809,-7.22369 -1.776461,-8.57269 -0.390007,-1.75576 -0.391767,-1.74806 0.444232,-1.94647 0.391276,-0.0929 1.321195,-0.26742 2.066484,-0.38789 0.74529,-0.12047 1.629475,-0.28007 1.964854,-0.35466 0.335381,-0.0746 0.853696,-0.17502 1.151812,-0.22317 0.298116,-0.0481 0.998307,-0.18137 1.555978,-0.29608 0.557672,-0.1147 1.685769,-0.3316 2.506883,-0.482 0.821114,-0.1504 2.12138,-0.39158 2.889478,-0.53594 l 1.396544,-0.26248 0.195666,0.29211 c 0.107615,0.16066 0.195666,0.39878 0.195666,0.52917 0,0.13038 0.45484,2.42762 1.010756,5.105 1.301861,6.26994 1.250524,6.02374 1.633956,7.83611 0.180496,0.85316 0.313821,1.56621 0.296274,1.58455 -0.05494,0.0574 -2.77946,0.58054 -5.041348,0.96792 -1.192464,0.20423 -2.473006,0.43738 -2.845651,0.51807 -0.372645,0.0806 -1.012916,0.2027 -1.422826,0.2711 -0.409908,0.0684 -1.629474,0.28608 -2.710144,0.48377 -2.187398,0.40014 -2.389623,0.41885 -2.500406,0.23141 z M 3.7473905,260.5015 c -0.045373,-0.21431 -0.1319058,-0.58095 -0.1922825,-0.81475 -0.06038,-0.2338 -0.1802731,-0.83956 -0.2664353,-1.34613 -0.086158,-0.50657 -0.2120989,-1.14421 -0.2798623,-1.41698 -0.1456244,-0.58619 -0.6564848,-3.17915 -0.8193765,-4.15889 -0.062851,-0.37802 -0.1713191,-0.88813 -0.2410431,-1.13358 -0.069723,-0.24544 -0.2619168,-1.14767 -0.4270938,-2.00494 -0.1651782,-0.85728 -0.385238,-1.93046 -0.4890232,-2.38488 -0.10378074,-0.45441 -0.18870053,-0.9443 -0.18870053,-1.08865 0,-0.22509 2.09322783,-2.39814 2.42646793,-2.51898 0.1621591,-0.0588 0.3370237,0.67084 1.3003019,5.42571 0.173672,0.85728 0.4447911,2.16444 0.6024871,2.9048 0.157696,0.74037 0.3754217,1.79248 0.4838352,2.33801 0.1084135,0.54554 0.347557,1.72517 0.5314299,2.6214 l 0.3343151,1.62953 -1.1648817,1.169 c -0.6406844,0.64295 -1.2464998,1.169 -1.3462574,1.169 -0.099758,0 -0.2185026,-0.17535 -0.2638808,-0.38967 z m 7.0172615,-7.08487 c -0.08486,-0.44812 -0.281425,-1.42051 -0.436812,-2.16088 -0.155386,-0.74037 -0.3386453,-1.63306 -0.4072407,-1.98377 -0.068593,-0.35069 -0.3110478,-1.56222 -0.5387826,-2.69225 C 9.154083,245.44969 8.8756383,244.01501 8.76305,243.39154 8.6504627,242.76807 8.5038829,242.06668 8.4373175,241.83286 8.3707526,241.59906 8.213567,240.86747 8.0880181,240.2071 l -0.228271,-1.20068 0.6467114,-0.57054 c 0.3556906,-0.31379 0.919884,-0.84669 1.2537635,-1.18423 0.685972,-0.69346 0.724637,-0.6726 0.961021,0.51886 0.08765,0.44183 0.216755,1.05837 0.286887,1.3701 0.212557,0.94483 0.976625,4.63794 1.084687,5.24282 0.05569,0.31172 0.205415,1.045 0.332721,1.6295 0.238188,1.09361 0.785365,3.74303 1.04806,5.0747 l 0.148523,0.7529 -0.528586,0.45152 c -0.290724,0.24833 -0.860901,0.78629 -1.267058,1.19543 -0.406159,0.40915 -0.776511,0.74391 -0.823002,0.74391 -0.04649,0 -0.153964,-0.36664 -0.238823,-0.81476 z m 61.689278,-0.0693 c -0.03607,-0.0983 -0.04965,-2.85677 -0.03019,-6.12995 l 0.03539,-5.95126 5.794374,-0.037 5.794374,-0.0369 -0.03532,6.12992 -0.03532,6.12994 -5.728867,0.037 c -4.511265,0.029 -5.742804,-9e-4 -5.794446,-0.14174 z m 26.152895,0 c -0.03613,-0.0983 -0.04964,-2.85677 -0.03014,-6.12995 l 0.03535,-5.95126 h 5.759055 5.75905 v 6.09299 6.09299 l -5.72885,0.037 c -4.51128,0.029 -5.742816,-9e-4 -5.794452,-0.14174 z m 16.666805,-9e-4 c -0.0357,-0.0974 -0.0491,-2.85522 -0.0296,-6.12841 l 0.0354,-5.95125 h 5.75905 5.75906 l 0.0381,6.011 c 0.0303,4.76835 0.002,6.03481 -0.13552,6.12624 -0.0956,0.0634 -2.69095,0.11622 -5.76761,0.11742 -4.35241,0.002 -5.60836,-0.0371 -5.65895,-0.175 z m 26.2603,0.0842 c -0.13182,-0.0563 -0.16938,-1.42182 -0.16938,-6.15498 v -6.0827 l 5.79292,0.037 5.79294,0.0369 v 6.09299 6.09299 l -5.62356,0.0251 c -3.09295,0.0138 -5.69976,-0.007 -5.79292,-0.0472 z m 16.42447,-0.0842 c -0.0357,-0.0974 -0.0491,-2.85522 -0.0296,-6.12841 l 0.0354,-5.95125 h 5.75906 5.75905 l 0.0354,6.01281 c 0.0278,4.71623 -9.9e-4,6.03728 -0.1355,6.12626 -0.094,0.0624 -2.68814,0.11439 -5.7648,0.11559 -4.3524,0.002 -5.60836,-0.0371 -5.65894,-0.175 z m 13.28028,9e-4 c -0.036,-0.0983 -0.0497,-2.85677 -0.0302,-6.12995 l 0.0354,-5.95126 h 5.75905 5.75907 v 6.09299 6.09299 l -5.72887,0.037 c -4.51127,0.029 -5.74281,-9e-4 -5.79445,-0.14174 z m 12.97853,0.0557 c -0.13407,-0.0873 -0.16327,-1.40697 -0.13552,-6.12409 l 0.0354,-6.01283 h 5.75906 5.75904 v 6.09299 6.093 l -5.62353,0.031 c -3.09296,0.0171 -5.70045,-0.0189 -5.79442,-0.0801 z m 15.74843,-0.0573 c -0.0357,-0.0974 -0.0491,-2.85523 -0.0296,-6.12841 l 0.0354,-5.95124 h 5.75907 5.75904 l 0.0353,6.0128 c 0.0278,4.71623 -9.9e-4,6.03728 -0.13549,6.12624 -0.094,0.0624 -2.68813,0.11441 -5.76481,0.11561 -4.35241,0.002 -5.60834,-0.0372 -5.65894,-0.175 z m 13.28027,9e-4 c -0.036,-0.0983 -0.0497,-2.85677 -0.0302,-6.12995 l 0.0354,-5.95124 h 5.75906 5.75906 v 6.09299 6.09299 l -5.72886,0.0369 c -4.51127,0.029 -5.74282,-9e-4 -5.79445,-0.14175 z m 12.87318,0 c -0.0361,-0.0983 -0.0497,-2.85677 -0.0302,-6.12995 l 0.0354,-5.95124 h 5.75905 5.75905 v 6.09299 6.09299 l -5.72885,0.0369 c -4.51127,0.029 -5.74281,-9e-4 -5.79446,-0.14175 z m 16.66739,0 c -0.0361,-0.0983 -0.0497,-2.85677 -0.0302,-6.12995 l 0.0354,-5.95124 h 5.75905 5.75906 v 6.09299 6.09299 l -5.72886,0.0369 c -4.51126,0.029 -5.74281,-9e-4 -5.79445,-0.14175 z m 15.88361,0.0826 c -0.0506,-0.0528 -0.0918,-2.82791 -0.0918,-6.16692 v -6.0709 l 5.72518,0.0369 5.72519,0.037 v 6.09299 6.093 l -5.63338,0.037 c -3.09835,0.0203 -5.67469,-0.007 -5.72517,-0.0591 z m 26.09687,-0.0226 c -0.12947,-0.086 -0.16021,-1.47566 -0.1355,-6.12625 l 0.0319,-6.01502 5.79295,-0.037 5.79291,-0.0369 v 6.16535 6.16536 l -5.65742,-0.002 c -3.11158,-9e-4 -5.73277,-0.0523 -5.82488,-0.11338 z M 13.867879,250.86608 c -0.08081,-0.37018 -0.268179,-1.3107 -0.416378,-2.09003 -0.148197,-0.77935 -0.486213,-2.50096 -0.751146,-3.82584 -0.26493,-1.32487 -0.689244,-3.46096 -0.942916,-4.74686 -0.253672,-1.28591 -0.52584,-2.63716 -0.604817,-3.00278 -0.07898,-0.36561 -0.108369,-0.76076 -0.0653,-0.8781 0.04646,-0.12661 0.390327,-0.27366 0.845715,-0.36165 0.422081,-0.0816 1.194267,-0.24191 1.715969,-0.35634 0.521704,-0.11443 1.588822,-0.3035 2.371376,-0.42014 0.782554,-0.11664 1.727718,-0.27555 2.100362,-0.35311 0.732185,-0.1524 2.702248,-0.5285 3.794203,-0.72432 0.372644,-0.0668 1.195851,-0.22084 1.829347,-0.34225 1.718037,-0.32921 1.702586,-0.33296 1.864637,0.45197 0.07642,0.37019 0.365781,1.75706 0.643012,3.08192 0.27723,1.32487 0.557794,2.69581 0.623477,3.0465 0.06567,0.3507 0.175279,0.89269 0.243551,1.20443 0.06827,0.31173 0.220183,1.04501 0.33758,1.62951 0.117399,0.5845 0.308064,1.50908 0.423701,2.05461 0.236407,1.11529 0.447717,2.14738 0.60402,2.95027 0.09599,0.49303 0.07544,0.55333 -0.229852,0.6747 -0.317837,0.12635 -1.876353,0.4515 -3.358314,0.70062 -0.372647,0.0627 -1.226341,0.22239 -1.897102,0.35497 -0.67076,0.1326 -1.493967,0.288 -1.829347,0.34535 -1.23746,0.21157 -5.370498,1.00881 -5.920692,1.14205 -1.090984,0.26419 -1.217204,0.21526 -1.381086,-0.53548 z m 32.971133,-5.8025 c -0.0505,-0.29616 -0.384415,-1.94127 -0.742012,-3.6558 -0.357597,-1.71454 -0.745142,-3.59558 -0.861211,-4.18008 -0.116069,-0.58451 -0.304428,-1.50909 -0.418575,-2.05462 -0.577572,-2.76035 -0.789517,-3.88458 -0.8453,-4.48376 l -0.06125,-0.65793 0.994529,-0.17075 c 0.546992,-0.0939 1.756758,-0.32081 2.68837,-0.5042 0.931612,-0.18339 2.943894,-0.561 4.471738,-0.83913 1.527844,-0.27813 3.418168,-0.63222 4.200723,-0.78688 0.782554,-0.15464 1.555297,-0.28089 1.717209,-0.28052 0.335238,7.6e-4 0.421332,0.23278 0.788888,2.12612 0.1286,0.66245 0.353448,1.74642 0.499662,2.40887 0.146213,0.66243 0.349974,1.587 0.452798,2.0546 0.102826,0.46761 0.346268,1.64723 0.540989,2.62141 0.306116,1.53148 0.564343,2.72876 1.145858,5.31286 0.07006,0.31128 0.07735,0.61829 0.01621,0.6822 -0.118118,0.12353 -1.45102,0.41364 -4.619583,1.00544 -0.985962,0.18416 -2.796091,0.53193 -5.623548,1.08043 -0.372645,0.0724 -1.378786,0.26545 -2.23587,0.42926 -0.857082,0.1638 -1.661709,0.32776 -1.788059,0.36438 -0.177097,0.0513 -0.250762,-0.0567 -0.321559,-0.4719 z"
       id="path3730"
       inkscape:connector-curvature="0" />
  </g>
</svg>
