<svg width="36" height="52" viewBox="0 0 36 52" fill="none" xmlns="http://www.w3.org/2000/svg">
<path d="M0.1 45.26C4.58 49.81 11.16 51.84 17.18 51.84C29.71 51.84 35.73 43.3 35.73 34.76C35.73 27.76 31.04 21.88 23.62 20.27L33.77 8.58V0.949998H2.2V11.45H14.17C17.32 11.45 18.93 11.1 18.93 11.1V11.24C18.93 11.24 16.97 13.06 14.59 15.93L8.01 23.84L10.6 29.79H14.1C19.49 29.79 23.41 31.4 23.41 35.32C23.41 38.05 20.82 40.29 16.27 40.29C12.42 40.29 8.5 38.26 5.98 35.81L0.1 45.26Z" fill="#E0ECFE" fill-opacity="0.9"/>
</svg>
