<svg width="22" height="22" viewBox="0 0 22 22" fill="none" xmlns="http://www.w3.org/2000/svg">
<g clip-path="url(#clip0)">
<path d="M3.23502 18.765C4.24302 19.773 5.41721 20.5645 6.72506 21.1177C8.07996 21.6908 9.51822 21.9813 11 21.9813C12.4817 21.9813 13.92 21.6908 15.2749 21.1177C16.5827 20.5645 17.7569 19.773 18.7649 18.765C19.7729 17.757 20.5645 16.5828 21.1176 15.275C21.6907 13.9201 21.9813 12.4818 21.9813 11.0001C21.9813 9.5183 21.6907 8.08004 21.1176 6.72519C20.5645 5.41733 19.7729 4.24315 18.7649 3.23515C17.7569 2.22714 16.5827 1.43558 15.2749 0.882431C13.9199 0.309333 12.4817 0.0187988 11 0.0187988C9.51822 0.0187988 8.07996 0.309371 6.72506 0.882431C5.41721 1.43558 4.24302 2.22718 3.23502 3.23515C2.22702 4.24311 1.43546 5.41733 0.882272 6.72515C0.309248 8.08004 0.0186768 9.5183 0.0186768 11.0001C0.0186768 12.4818 0.309248 13.9201 0.882309 15.275C1.43546 16.5828 2.22706 17.757 3.23502 18.765ZM11 1.6219C16.1794 1.6219 20.3781 5.82065 20.3781 11.0001C20.3781 16.1795 16.1794 20.3782 11 20.3782C5.82053 20.3782 1.62178 16.1795 1.62178 11.0001C1.62178 5.82065 5.82053 1.6219 11 1.6219Z" fill="#03013D"/>
<path d="M11 22.0009C9.51563 22.0009 8.07494 21.7098 6.7178 21.1358C5.4077 20.5817 4.23149 19.7888 3.22185 18.7791C2.21212 17.7694 1.41922 16.5931 0.865129 15.2831C0.291058 13.9259 0 12.4852 0 11.001C0 9.51676 0.291058 8.07599 0.865092 6.71874C1.41918 5.40872 2.21212 4.23251 3.22181 3.22279C4.23149 2.21306 5.40774 1.42016 6.71776 0.866068C8.07501 0.292035 9.51575 0.000976562 11 0.000976562C12.4843 0.000976562 13.925 0.292035 15.2821 0.866106C16.5922 1.42019 17.7684 2.21314 18.7782 3.22282C19.7879 4.23262 20.5808 5.40883 21.1349 6.71878C21.7089 8.07603 22 9.51676 22 11.001C22 12.4852 21.7089 13.9259 21.1349 15.2831C20.5808 16.5931 19.788 17.7693 18.7782 18.7792C17.7685 19.7888 16.5922 20.5817 15.2821 21.1359C13.925 21.7098 12.4843 22.0009 11 22.0009ZM11 0.0383973C9.5208 0.0383973 8.085 0.328445 6.73239 0.900533C5.42682 1.45275 4.25458 2.24296 3.2483 3.24924C2.24199 4.25556 1.45177 5.42776 0.899556 6.7333C0.327468 8.08594 0.0374207 9.52177 0.0374207 11.001C0.0374207 12.4801 0.327468 13.916 0.899556 15.2686C1.45177 16.5742 2.24199 17.7464 3.2483 18.7527C4.25455 19.7589 5.42675 20.5491 6.73239 21.1014C8.08485 21.6734 9.52068 21.9635 11 21.9635C12.4793 21.9635 13.9151 21.6734 15.2676 21.1013C16.5732 20.5491 17.7455 19.7589 18.7517 18.7527C19.7581 17.7462 20.5482 16.574 21.1004 15.2686C21.6725 13.916 21.9626 12.4801 21.9626 11.001C21.9626 9.52177 21.6725 8.08594 21.1004 6.73337C20.5483 5.42788 19.7581 4.25567 18.7517 3.24928C17.7454 2.243 16.5731 1.45279 15.2676 0.90057C13.9151 0.328445 12.4792 0.0383973 11 0.0383973ZM11 20.3978C8.49001 20.3978 6.13022 19.4204 4.35539 17.6455C2.58057 15.8707 1.6031 13.511 1.6031 11.001C1.6031 8.49098 2.58053 6.1312 4.35539 4.35637C6.13022 2.58154 8.49001 1.60408 11 1.60408C13.51 1.60408 15.8697 2.58154 17.6446 4.35637C19.4194 6.13123 20.3969 8.49098 20.3969 11.001C20.3969 13.511 19.4194 15.8707 17.6446 17.6455C15.8697 19.4204 13.51 20.3978 11 20.3978ZM11 1.6415C8.5 1.6415 6.14964 2.61507 4.38185 4.38283C2.6141 6.15062 1.64052 8.50097 1.64052 11.001C1.64052 13.501 2.6141 15.8513 4.38185 17.6191C6.1496 19.3868 8.5 20.3604 11 20.3604C13.5 20.3604 15.8504 19.3868 17.6181 17.6191C19.3859 15.8513 20.3594 13.5009 20.3594 11.001C20.3594 8.50097 19.3859 6.15058 17.6181 4.38283C15.8503 2.61504 13.5 1.6415 11 1.6415Z" fill="#03013D"/>
<path d="M8.56902 14.9981C8.71934 15.1484 8.92321 15.2328 9.13579 15.2328C9.34842 15.2328 9.55225 15.1484 9.70257 14.9981L16.565 8.13566C16.878 7.82264 16.878 7.31514 16.565 7.00212C16.252 6.68909 15.7444 6.68905 15.4314 7.00212L9.13579 13.2978L6.56851 10.7305C6.25549 10.4174 5.74799 10.4174 5.43496 10.7305C5.12194 11.0435 5.12194 11.551 5.43496 11.864L8.56902 14.9981Z" fill="#03013D"/>
<path d="M9.13581 15.2515C8.91671 15.2515 8.71071 15.1661 8.55579 15.0112L5.42173 11.8772C5.10194 11.5573 5.10194 11.0369 5.42173 10.7171C5.57665 10.5622 5.78266 10.4768 6.00175 10.4768C6.22085 10.4768 6.42681 10.5622 6.58177 10.7171L9.13585 13.2712L15.4182 6.98878C15.5731 6.83382 15.7791 6.74854 15.9982 6.74854C16.2173 6.74854 16.4233 6.83385 16.5783 6.98878C16.7332 7.1437 16.8185 7.3497 16.8185 7.5688C16.8185 7.7879 16.7332 7.99386 16.5783 8.14882L9.71583 15.0112C9.56095 15.1661 9.35495 15.2515 9.13581 15.2515ZM6.00175 10.5143C5.79265 10.5143 5.59608 10.5957 5.44823 10.7436C5.14302 11.0488 5.14302 11.5455 5.44823 11.8507L8.58228 14.9848C8.73013 15.1326 8.9267 15.214 9.13581 15.214C9.34495 15.214 9.54153 15.1326 9.68937 14.9848L16.5518 8.12236C16.6996 7.97451 16.7811 7.7779 16.7811 7.56883C16.7811 7.35977 16.6996 7.16312 16.5518 7.01527C16.4039 6.86738 16.2073 6.78599 15.9982 6.78599C15.7891 6.78599 15.5925 6.86742 15.4446 7.01527L9.13581 13.3241L6.55528 10.7436C6.40743 10.5957 6.21086 10.5143 6.00175 10.5143Z" fill="#03013D"/>
</g>
<defs>
<clipPath id="clip0">
<rect width="22" height="22" fill="white"/>
</clipPath>
</defs>
</svg>
