<svg width="11" height="11" viewBox="0 0 11 11" fill="none" xmlns="http://www.w3.org/2000/svg">
<g clip-path="url(#clip0)">
<path d="M10.7 6.86253C10.3136 6.46634 6.24697 2.59332 6.24697 2.59332C6.04062 2.38185 5.77017 2.27583 5.4999 2.27583C5.22907 2.27583 4.95862 2.38185 4.75284 2.59332C4.75284 2.59332 0.686371 6.46634 0.299657 6.86253C-0.0866771 7.25892 -0.11304 7.97166 0.299657 8.3946C0.711975 8.81734 1.28797 8.85091 1.79398 8.3946L5.4999 4.84134L9.20564 8.3946C9.71203 8.85091 10.2876 8.81734 10.7 8.3946C11.113 7.97147 11.0867 7.25873 10.7 6.86253Z" fill="#8B8A8C"/>
</g>
<defs>
<clipPath id="clip0">
<rect width="11" height="11" fill="white" transform="matrix(1 0 0 -1 0 11)"/>
</clipPath>
</defs>
</svg>
