<svg width="28" height="28" viewBox="0 0 28 28" fill="none" xmlns="http://www.w3.org/2000/svg">
<g clip-path="url(#clip0)">
<path d="M21.4227 7.26015C21.4227 8.10841 20.8052 8.62429 20.3542 9.00287C20.1834 9.14626 19.8656 9.4079 19.8664 9.50563C19.8695 9.88899 19.5613 10.1951 19.1778 10.1951C19.1759 10.1951 19.174 10.1951 19.1721 10.1951C18.7913 10.1951 18.4811 9.8984 18.478 9.51697C18.4719 8.76513 19.0206 8.3149 19.4615 7.94473C19.8074 7.65424 20.0343 7.44983 20.0343 7.26278C20.0343 6.88412 19.7262 6.57604 19.3475 6.57604C18.9687 6.57604 18.6606 6.88412 18.6606 7.26278C18.6606 7.64621 18.3498 7.95699 17.9664 7.95699C17.5829 7.95699 17.2721 7.64621 17.2721 7.26278C17.2721 6.11856 18.2031 5.18761 19.3474 5.18761C20.4918 5.18754 21.4227 6.11586 21.4227 7.26015ZM19.1913 10.836C18.8078 10.836 18.5124 11.1468 18.5124 11.5302V11.5355C18.5124 11.919 18.8079 12.2271 19.1913 12.2271C19.5746 12.2271 19.8855 11.9136 19.8855 11.5302C19.8855 11.1468 19.5747 10.836 19.1913 10.836ZM5.19828 15.6718C4.81484 15.6718 4.50407 15.9826 4.50407 16.366C4.50407 16.7495 4.81484 17.0602 5.19828 17.0602H5.25613C5.63957 17.0602 5.95035 16.7495 5.95035 16.366C5.95035 15.9826 5.63957 15.6718 5.25613 15.6718H5.19828ZM7.61099 15.6718C7.22755 15.6718 6.91677 15.9826 6.91677 16.366C6.91677 16.7495 7.22755 17.0602 7.61099 17.0602H7.66876C8.0522 17.0602 8.36298 16.7495 8.36298 16.366C8.36298 15.9826 8.0522 15.6718 7.66876 15.6718H7.61099ZM28 4.58372V12.3976C28 14.2477 26.5165 15.7489 24.6665 15.7489H15.6635C15.4875 15.7489 15.3425 15.7479 15.2213 15.7454C15.0942 15.7428 14.9512 15.7418 14.8955 15.7479C14.8374 15.7865 14.695 15.9169 14.5578 16.0434C14.5034 16.0934 14.4418 16.1485 14.3754 16.2091L11.8283 18.5307C11.6251 18.7161 11.3245 18.7641 11.0729 18.6531C10.8213 18.5421 10.6446 18.293 10.6446 18.018V10.658H3.37234C2.28767 10.658 1.38843 11.5469 1.38843 12.6314V20.4452C1.38843 21.5298 2.28775 22.3825 3.37234 22.3825H13.4287C13.6019 22.3825 13.7639 22.4621 13.8918 22.5789L15.9669 24.4921V17.8941C15.9669 17.5106 16.2777 17.1998 16.6612 17.1998C17.0446 17.1998 17.3554 17.5106 17.3554 17.8941V26.0656C17.3554 26.3406 17.198 26.586 16.9463 26.697C16.8563 26.7367 16.7659 26.7524 16.6713 26.7524C16.5013 26.7524 16.3336 26.6826 16.2031 26.5635L13.1596 23.7709H3.37234C1.52218 23.7709 0 22.2953 0 20.4451V12.6314C0 10.7813 1.52218 9.2696 3.37234 9.2696H10.6446V4.58372C10.6446 2.73356 12.1785 1.24756 14.0286 1.24756H24.6665C26.5165 1.24756 28 2.73356 28 4.58372ZM26.6116 4.58372C26.6116 3.49913 25.751 2.63599 24.6665 2.63599H14.0286C12.944 2.63599 12.0331 3.49913 12.0331 4.58372V9.97029V16.4445L13.4288 15.1832C13.4935 15.1241 13.5659 15.0701 13.6187 15.0214C14.2561 14.4341 14.4192 14.3402 15.2505 14.3573C15.3639 14.3597 15.499 14.3606 15.6635 14.3606H24.6665C25.751 14.3606 26.6116 13.4822 26.6116 12.3977V4.58372Z" fill="#03013D"/>
</g>
<defs>
<clipPath id="clip0">
<rect width="28" height="28" fill="white" transform="matrix(-1 0 0 1 28 0)"/>
</clipPath>
</defs>
</svg>
