<svg width="17" height="17" viewBox="0 0 17 17" fill="none" xmlns="http://www.w3.org/2000/svg">
<path d="M16.9882 4.20464C16.9875 3.72489 16.597 3.33508 16.1174 3.33508C16.117 3.33508 16.1166 3.33508 16.1163 3.33508L0.869589 3.35603C0.637002 3.35633 0.418426 3.44721 0.25417 3.6119C0.0899478 3.77662 -0.000298088 3.99546 7.39747e-07 4.22798L0.0117878 12.7953C0.0120867 13.0279 0.102963 13.2465 0.267651 13.4108C0.432039 13.5747 0.650349 13.6649 0.882538 13.6649C0.882937 13.6649 0.883368 13.6649 0.8837 13.6649L16.1303 13.644C16.6104 13.6433 17.0005 13.2522 16.9999 12.772L16.9882 4.20464ZM15.1609 4.20716L8.50065 8.83713L1.8275 4.22549L15.1609 4.20716ZM11.3171 9.71093L15.2673 12.7744L1.72141 12.793L5.69569 9.71093C5.88568 9.56355 5.92027 9.29008 5.77292 9.10003C5.62553 8.91004 5.35207 8.87545 5.16201 9.0228L0.881907 12.3421L0.871282 4.6232L8.25379 9.72508C8.32829 9.77658 8.41479 9.80228 8.50131 9.80228C8.58821 9.80228 8.67517 9.77628 8.74984 9.72438L16.118 4.60234L16.1292 12.3408L11.8507 9.02283C11.6609 8.87551 11.3873 8.91008 11.2399 9.10006C11.0925 9.29005 11.1271 9.56358 11.3171 9.71093Z" fill="white"/>
</svg>
