<svg xmlns="http://www.w3.org/2000/svg" viewBox="0 0 255 255"><defs><style>.cls-1{fill:#0d06db;}.cls-2{fill:#9e9e9e;}.cls-3{fill:#05017f;}.cls-4{font-size:18px;fill:#fff;font-family:OpenSans-Extrabold, Open Sans;font-weight:700;}</style></defs><title>Ресурс 12</title><g id="Слой_2" data-name="Слой 2"><g id="Слой_1-2" data-name="Слой 1"><path class="cls-1" d="M167.07,6.43,145.48,73.05A57.48,57.48,0,0,0,86.72,168L33.43,213.55A127.55,127.55,0,0,1,167.07,6.43Z" transform="translate(-0.25 -0.25)"/><path class="cls-2" d="M105.37,253.29l12.71-68.86a57.5,57.5,0,0,0,27.4-111.38L167.07,6.43a127.53,127.53,0,0,1-61.7,246.86Z" transform="translate(-0.25 -0.25)"/><path class="cls-3" d="M86.72,168a57.28,57.28,0,0,0,31.36,16.44l-12.71,68.86a127.3,127.3,0,0,1-71.94-39.74Z" transform="translate(-0.25 -0.25)"/><text class="cls-4" transform="translate(25.17 80.83)">39,6%</text><text class="cls-4" transform="translate(193.17 133.83)">48,3%</text><text class="cls-4" transform="translate(48.17 218.83)">12,1%</text></g></g></svg>