<svg width="20" height="21" viewBox="0 0 20 21" fill="none" xmlns="http://www.w3.org/2000/svg">
<g clip-path="url(#clip0)">
<path d="M9.69368 13.8821C9.12184 13.8821 8.65887 14.3622 8.65887 14.9384C8.65887 15.5008 9.10821 15.9947 9.69368 15.9947C10.2791 15.9947 10.7421 15.5008 10.7421 14.9384C10.7421 14.3622 10.2656 13.8821 9.69368 13.8821Z" fill="#0D06DB"/>
<path d="M9.8707 5.88428C8.03253 5.88428 7.18835 6.98169 7.18835 7.72248C7.18835 8.25751 7.63765 8.50442 8.00531 8.50442C8.74054 8.50442 8.44101 7.44813 9.82984 7.44813C10.5107 7.44813 11.0553 7.74995 11.0553 8.38097C11.0553 9.12179 10.2928 9.54702 9.84347 9.93112C9.44863 10.2741 8.93121 10.8365 8.93121 12.0163C8.93121 12.7296 9.12179 12.9354 9.68007 12.9354C10.3473 12.9354 10.4834 12.6336 10.4834 12.373C10.4834 11.6596 10.4971 11.2481 11.2459 10.6582C11.6136 10.3701 12.7709 9.4373 12.7709 8.14779C12.7709 6.85828 11.6136 5.88428 9.8707 5.88428Z" fill="#0D06DB"/>
<path d="M10 0.374512C4.47328 0.374512 0 4.88055 0 10.4494V19.7372C0 20.1719 0.349766 20.5243 0.78125 20.5243H10C15.5267 20.5243 20 16.0183 20 10.4494C20 4.8813 15.5275 0.374512 10 0.374512ZM10 18.9501H1.5625V10.4494C1.5625 5.75132 5.33621 1.94872 10 1.94872C14.6632 1.94872 18.4375 5.75069 18.4375 10.4494C18.4375 15.1475 14.6638 18.9501 10 18.9501Z" fill="#0D06DB"/>
</g>
<defs>
<clipPath id="clip0">
<rect width="20" height="20.1498" fill="white" transform="translate(0 0.374512)"/>
</clipPath>
</defs>
</svg>
