<svg width="56" height="56" viewBox="0 0 56 56" fill="none" xmlns="http://www.w3.org/2000/svg">
<path d="M56.0001 5.30374V55.4111C56.002 55.5648 55.9431 55.7129 55.8361 55.8233C55.7292 55.9336 55.5829 55.9972 55.4293 56H5.08707C4.80733 55.9997 4.52812 55.9756 4.25249 55.9277C3.9415 55.8733 3.63657 55.7886 3.34204 55.6748C3.01846 55.5504 2.70853 55.393 2.41714 55.2052C2.09999 54.9987 1.8078 54.7562 1.54643 54.4826C0.552613 53.4733 -0.00302974 52.1127 0.000105118 50.6963V0.588903C-0.00280571 0.436196 0.0548375 0.288542 0.160442 0.178199C0.266047 0.0678554 0.41103 0.00379064 0.563718 0L50.9059 0C53.7059 0 56.0001 2.38813 56.0001 5.30374Z" fill="url(#paint0_linear)"/>
<path d="M56.0003 8.18323V8.78658L41.9858 14.8454L41.3825 15.1055H41.3391C41.1102 15.1726 40.8671 15.1743 40.6373 15.1105C40.4074 15.0466 40.2 14.9198 40.0385 14.7443C39.9557 14.6505 39.91 14.5297 39.91 14.4046C39.91 14.2796 39.9557 14.1588 40.0385 14.065C40.0913 14.0068 40.1536 13.958 40.2227 13.9205L40.3817 14.0867L41.639 13.6134L56.0003 8.18323Z" fill="white"/>
<path d="M56.0003 23.8452V24.463L41.9858 32.3391L41.8088 32.4403L41.7691 32.4619C41.546 32.552 41.3022 32.5778 41.0653 32.5363C40.8283 32.4948 40.6078 32.3877 40.4287 32.2271C40.3338 32.1457 40.2721 32.0322 40.2555 31.9083C40.2388 31.7844 40.2683 31.6587 40.3384 31.5551C40.3867 31.4918 40.4439 31.4358 40.5082 31.3889L40.6852 31.537L41.91 30.912L56.0003 23.8452Z" fill="white"/>
<path d="M44.056 26.0671L25.1208 20.6477V11.2H37.1337V13.3677H35.3273C35.0583 13.3716 34.8018 13.4816 34.6136 13.6738C34.4255 13.866 34.3209 14.1248 34.3229 14.3938V18.6101C34.3229 18.8803 34.4302 19.1394 34.6213 19.3305C34.8124 19.5216 35.0715 19.6289 35.3417 19.6289H40.967C41.1009 19.6294 41.2336 19.6034 41.3575 19.5523C41.4813 19.5013 41.5938 19.4263 41.6885 19.3316C41.7832 19.2369 41.8582 19.1244 41.9093 19.0005C41.9603 18.8767 41.9863 18.744 41.9858 18.6101V14.3938C41.9868 14.2594 41.9612 14.1261 41.9104 14.0017C41.8596 13.8772 41.7847 13.7641 41.69 13.6687C41.5953 13.5733 41.4827 13.4976 41.3586 13.446C41.2345 13.3943 41.1014 13.3677 40.967 13.3677H39.1606V11.2H43.7634C44.0098 11.1999 44.2479 11.1108 44.4339 10.949C44.6198 10.7873 44.7411 10.5639 44.7754 10.3198C44.8097 10.0758 44.7547 9.8276 44.6205 9.62089C44.4864 9.41418 44.2821 9.26288 44.0452 9.19484L24.4019 3.584H24.3802H24.3549L24.2899 3.56594H24.2429H24.2068C24.1853 3.562 24.1632 3.562 24.1417 3.56594H7.22611C7.20336 3.56241 7.18021 3.56241 7.15747 3.56594H7.1105H7.0563L6.99127 3.584H6.96959H6.9443L0.000305176 5.56387V7.68465L6.21089 5.9071V9.15871H0.000305176V11.2H6.21089V20.655L0.000305176 22.4289V24.5677L6.21089 22.7613V26.0129H0.000305176V28.0542H6.21089V38.1342L2.0416 52.7484V52.7809L1.55747 54.479C1.81884 54.7526 2.11102 54.9951 2.42818 55.2015C2.71957 55.3894 3.0295 55.5468 3.35308 55.6712L3.88779 54.1899H27.3717L28.0942 55.9964H30.215L29.2973 52.7845V52.7484L25.128 38.1523V28.065H37.1409V30.2328H35.3345C35.0646 30.2356 34.8067 30.3451 34.6172 30.5373C34.4277 30.7296 34.3219 30.9889 34.3229 31.2588V35.4787C34.3267 35.7471 34.4354 36.0033 34.6259 36.1924C34.8164 36.3815 35.0733 36.4885 35.3417 36.4903H40.967C41.2376 36.4894 41.4967 36.3812 41.6877 36.1896C41.8786 35.9979 41.9859 35.7384 41.9858 35.4679V31.2588C41.9858 31.0093 41.8942 30.7685 41.7283 30.582C41.5625 30.3956 41.334 30.2764 41.0862 30.2472H40.967H39.1606V28.0795H43.7634C44.0087 28.0786 44.2454 27.9893 44.4301 27.828C44.6148 27.6666 44.7351 27.4441 44.7689 27.2012C44.8028 26.9582 44.7478 26.7113 44.6142 26.5056C44.4806 26.2999 44.2773 26.1494 44.0416 26.0816L44.056 26.0671ZM39.9482 15.4163V17.584H36.3642V15.4163H39.9482ZM25.1353 5.9071L36.5123 9.15871H25.1208L25.1353 5.9071ZM8.26663 5.57471H23.0831V9.15871H8.27024L8.26663 5.57471ZM23.0831 11.2V19.5097L10.6042 11.2H23.0831ZM8.27024 12.0852L20.7492 20.3948H8.25218L8.27024 12.0852ZM8.27024 22.4397H23.0831V26.0129H8.27024V22.4397ZM23.0831 28.065V36.3747L10.6042 28.065H23.0831ZM8.27024 28.9502L20.7492 37.2599H8.25218L8.27024 28.9502ZM20.8829 39.312L15.6659 42.9502L10.4777 39.312H20.8829ZM7.83669 39.9479L13.9028 44.193L4.78379 50.5806L7.83669 39.9479ZM6.25063 52.0258L15.6659 45.4359L25.0811 52.0258H6.25063ZM26.5479 50.5806L17.447 44.193L23.5131 39.9479L26.5479 50.5806ZM25.1208 26.0129V22.7613L36.4906 26.0129H25.1208ZM39.9337 32.2705V34.4382H36.3497V32.2705H39.9337Z" fill="white"/>
<defs>
<linearGradient id="paint0_linear" x1="46.3789" y1="13.4328" x2="3.76114" y2="47.2062" gradientUnits="userSpaceOnUse">
<stop stop-color="#0092F5"/>
<stop offset="0.53" stop-color="#0247F9"/>
<stop offset="1" stop-color="#0303FC"/>
</linearGradient>
</defs>
</svg>
