<svg xmlns="http://www.w3.org/2000/svg" viewBox="0 0 13.73 20.4"><defs><style>.cls-1{fill:#fff;stroke:#fff;stroke-width:0.4px;}</style></defs><title>Ресурс 5</title><g id="Слой_2" data-name="Слой 2"><g id="Слой_1-2" data-name="Слой 1"><path class="cls-1" d="M6.87.2A6.66,6.66,0,0,0,1,10L6.5,20a.42.42,0,0,0,.37.21A.41.41,0,0,0,7.23,20l5.5-10a6.59,6.59,0,0,0,.8-3.16A6.67,6.67,0,0,0,6.87.2ZM12,9.63,6.87,18.92,1.73,9.64a5.84,5.84,0,1,1,11-2.77A5.77,5.77,0,0,1,12,9.63Z"/><path class="cls-1" d="M6.87,3.53A3.34,3.34,0,1,0,10.2,6.87,3.35,3.35,0,0,0,6.87,3.53Zm0,5.84a2.5,2.5,0,1,1,2.5-2.5A2.5,2.5,0,0,1,6.87,9.37Z"/></g></g></svg>