<svg width="18" height="18" viewBox="0 0 18 18" fill="none" xmlns="http://www.w3.org/2000/svg">
<path d="M17.964 7.70534C17.9016 7.57245 17.7683 7.48743 17.6209 7.48743H16.4999C15.7872 3.61981 12.391 0.679749 8.32042 0.679749C3.73281 0.679749 0 4.41256 0 9.00017C0 13.5878 3.73243 17.3202 8.32042 17.3202C11.2812 17.3202 14.0424 15.7267 15.5264 13.1623C15.7355 12.8004 15.6122 12.3381 15.2499 12.1287C14.8884 11.9192 14.4257 12.0425 14.217 12.4044C13.0022 14.5035 10.7427 15.8079 8.32042 15.8079C4.56692 15.8079 1.51273 12.754 1.51273 9.00093C1.51273 5.24706 4.56692 2.19325 8.32042 2.19325C11.5535 2.19325 14.2622 4.46082 14.9523 7.48782H13.8402C13.6927 7.48782 13.5598 7.57284 13.497 7.70573C13.4346 7.83862 13.4549 7.99525 13.5491 8.10823L15.4402 10.3773C15.5122 10.4635 15.6183 10.5133 15.7309 10.5133C15.8431 10.5133 15.9496 10.4631 16.0212 10.3773L17.9123 8.10823C18.0065 7.99487 18.0264 7.83823 17.964 7.70534Z" fill="white"/>
<path d="M8.32043 2.57092C7.90261 2.57092 7.56407 2.90947 7.56407 3.32729V7.91681C7.22207 8.15655 6.99689 8.55177 6.99689 9.00062C6.99689 9.73056 7.59087 10.3245 8.32082 10.3245C8.52073 10.3245 8.70915 10.2767 8.87919 10.1966L11.5102 11.7151C11.6297 11.7844 11.7591 11.817 11.8878 11.817C12.149 11.817 12.4033 11.6814 12.5434 11.4386C12.7522 11.0775 12.6285 10.6145 12.2662 10.4057L9.63249 8.88496C9.59726 8.48514 9.3893 8.13587 9.07757 7.91757V3.32729C9.0768 2.90985 8.73787 2.57092 8.32043 2.57092ZM8.32043 9.56741C8.00755 9.56741 7.75325 9.31274 7.75325 9.00062C7.75325 8.68811 8.00793 8.43344 8.32043 8.43344C8.63294 8.43344 8.88761 8.68811 8.88761 9.00062C8.88761 9.31274 8.63294 9.56741 8.32043 9.56741Z" fill="white"/>
</svg>
