<svg width="20" height="20" viewBox="0 0 20 20" fill="none" xmlns="http://www.w3.org/2000/svg">
<g clip-path="url(#clip0)">
<path d="M15.8064 12.3893C15.397 11.963 14.9031 11.735 14.3797 11.735C13.8605 11.735 13.3624 11.9587 12.936 12.3851L11.6022 13.7147C11.4924 13.6556 11.3827 13.6008 11.2771 13.5459C11.1252 13.4699 10.9816 13.3982 10.8592 13.3222C9.60978 12.5286 8.47429 11.4944 7.38524 10.1563C6.8576 9.48938 6.50302 8.92797 6.24553 8.35812C6.59166 8.04153 6.91247 7.71229 7.22484 7.3957C7.34303 7.27751 7.46122 7.15509 7.57941 7.0369C8.46585 6.15046 8.46585 5.00232 7.57941 4.11588L6.42704 2.96351C6.29619 2.83265 6.16111 2.69758 6.03447 2.5625C5.78121 2.30079 5.51527 2.03064 5.2409 1.77737C4.83145 1.37214 4.3418 1.15686 3.82682 1.15686C3.31184 1.15686 2.81375 1.37214 2.39163 1.77737C2.38741 1.78159 2.38741 1.78159 2.38319 1.78581L0.948004 3.23366C0.407699 3.77397 0.099556 4.43246 0.0320178 5.19649C-0.0692895 6.42906 0.293728 7.57721 0.572323 8.32857C1.25615 10.1732 2.27766 11.8828 3.80149 13.7147C5.65035 15.9224 7.87489 17.6657 10.416 18.8941C11.3869 19.3542 12.6828 19.8987 14.1306 19.9916C14.2193 19.9958 14.3121 20 14.3965 20C15.3716 20 16.1905 19.6497 16.8321 18.9532C16.8364 18.9447 16.8448 18.9405 16.849 18.9321C17.0685 18.6661 17.3218 18.4255 17.5877 18.168C17.7692 17.995 17.955 17.8135 18.1365 17.6235C18.5544 17.1887 18.7739 16.6822 18.7739 16.163C18.7739 15.6396 18.5501 15.1373 18.1238 14.7151L15.8064 12.3893ZM17.3176 16.8342C17.3134 16.8342 17.3134 16.8384 17.3176 16.8342C17.153 17.0114 16.9841 17.1719 16.8026 17.3491C16.5282 17.6109 16.2496 17.8852 15.9879 18.1934C15.5616 18.6493 15.0593 18.8645 14.4008 18.8645C14.3375 18.8645 14.2699 18.8645 14.2066 18.8603C12.9529 18.7801 11.7879 18.2905 10.9141 17.8726C8.52495 16.716 6.42704 15.0739 4.68371 12.9929C3.2443 11.258 2.28188 9.65401 1.64449 7.93178C1.25193 6.88072 1.10841 6.06182 1.17172 5.28935C1.21394 4.79548 1.40389 4.38603 1.75424 4.03568L3.19365 2.59627C3.40049 2.4021 3.61998 2.29657 3.83526 2.29657C4.10119 2.29657 4.31647 2.45697 4.45155 2.59205C4.45577 2.59627 4.45999 2.60049 4.46421 2.60471C4.7217 2.84532 4.96653 3.09436 5.22402 3.36029C5.35487 3.49537 5.48995 3.63045 5.62502 3.76974L6.77739 4.92211C7.22483 5.36955 7.22483 5.78323 6.77739 6.23067C6.65498 6.35308 6.53679 6.47549 6.41438 6.59368C6.0598 6.9567 5.72211 7.29439 5.35487 7.62364C5.34643 7.63208 5.33799 7.6363 5.33377 7.64475C4.97075 8.00776 5.03829 8.36234 5.11427 8.60294C5.11849 8.61561 5.12271 8.62827 5.12693 8.64093C5.42663 9.36697 5.84874 10.0508 6.49036 10.8655L6.49458 10.8697C7.65961 12.3049 8.88796 13.4235 10.2429 14.2804C10.416 14.3901 10.5933 14.4788 10.7621 14.5632C10.9141 14.6392 11.0576 14.7109 11.18 14.7869C11.1969 14.7954 11.2138 14.808 11.2307 14.8165C11.3742 14.8882 11.5093 14.922 11.6486 14.922C11.9989 14.922 12.2184 14.7025 12.2902 14.6307L13.7338 13.1871C13.8773 13.0436 14.1053 12.8705 14.3712 12.8705C14.6329 12.8705 14.8482 13.0351 14.9791 13.1787C14.9833 13.1829 14.9833 13.1829 14.9875 13.1871L17.3134 15.5129C17.7481 15.9435 17.7481 16.3867 17.3176 16.8342Z" fill="white"/>
<path d="M10.8089 4.75753C11.9148 4.94326 12.9195 5.46668 13.7215 6.26869C14.5235 7.07071 15.0427 8.07534 15.2327 9.18128C15.2791 9.45987 15.5197 9.65405 15.7941 9.65405C15.8278 9.65405 15.8574 9.64982 15.8912 9.6456C16.2035 9.59495 16.4104 9.29947 16.3597 8.98711C16.1318 7.64901 15.4986 6.4291 14.5319 5.46246C13.5653 4.49582 12.3454 3.86265 11.0073 3.6347C10.6949 3.58405 10.4037 3.79089 10.3488 4.09903C10.2939 4.40717 10.4965 4.70687 10.8089 4.75753Z" fill="white"/>
<path d="M19.9766 8.82245C19.6009 6.61902 18.5625 4.61398 16.9669 3.01839C15.3714 1.4228 13.3663 0.384399 11.1629 0.00871824C10.8547 -0.0461565 10.5635 0.1649 10.5086 0.473043C10.4579 0.785407 10.6648 1.07667 10.9771 1.13154C12.9442 1.46501 14.7382 2.39788 16.1649 3.8204C17.5917 5.24715 18.5203 7.04113 18.8538 9.00818C18.9002 9.28678 19.1408 9.48095 19.4152 9.48095C19.449 9.48095 19.4785 9.47673 19.5123 9.47251C19.8204 9.42607 20.0315 9.1306 19.9766 8.82245Z" fill="white"/>
</g>
<defs>
<clipPath id="clip0">
<rect width="20" height="20" fill="white"/>
</clipPath>
</defs>
</svg>
