<svg width="25" height="25" viewBox="0 0 25 25" fill="none" xmlns="http://www.w3.org/2000/svg">
<g clip-path="url(#clip0)">
<path d="M19.7579 15.4866C19.2461 14.9537 18.6287 14.6688 17.9744 14.6688C17.3254 14.6688 16.7028 14.9484 16.1699 15.4813L14.5026 17.1434C14.3654 17.0695 14.2282 17.0009 14.0963 16.9323C13.9063 16.8374 13.7269 16.7477 13.5739 16.6527C12.0121 15.6607 10.5927 14.368 9.23141 12.6954C8.57186 11.8617 8.12864 11.1599 7.80678 10.4476C8.23944 10.0519 8.64045 9.64032 9.03091 9.24459C9.17865 9.09685 9.32639 8.94384 9.47413 8.7961C10.5822 7.68805 10.5822 6.25286 9.47413 5.14482L8.03366 3.70435C7.87009 3.54078 7.70125 3.37194 7.54296 3.20309C7.22637 2.87595 6.89396 2.53826 6.55099 2.22168C6.03918 1.71514 5.42711 1.44604 4.78339 1.44604C4.13966 1.44604 3.51705 1.71514 2.9894 2.22168C2.98413 2.22696 2.98413 2.22696 2.97885 2.23223L1.18487 4.04204C0.509486 4.71743 0.124308 5.54055 0.0398849 6.49558C-0.0867492 8.03629 0.367023 9.47148 0.715267 10.4107C1.57005 12.7165 2.84694 14.8534 4.75173 17.1434C7.0628 19.903 9.84348 22.0821 13.0199 23.6176C14.2335 24.1927 15.8533 24.8734 17.6631 24.9894C17.7739 24.9947 17.89 25 17.9955 25C19.2144 25 20.238 24.562 21.04 23.6914C21.0453 23.6809 21.0559 23.6756 21.0611 23.6651C21.3355 23.3326 21.6521 23.0319 21.9845 22.71C22.2114 22.4937 22.4436 22.2668 22.6705 22.0294C23.1928 21.4859 23.4672 20.8527 23.4672 20.2037C23.4672 19.5494 23.1875 18.9215 22.6546 18.3939L19.7579 15.4866ZM21.6468 21.0427C21.6416 21.0427 21.6416 21.0479 21.6468 21.0427C21.441 21.2643 21.23 21.4648 21.0031 21.6864C20.6601 22.0135 20.3119 22.3565 19.9848 22.7417C19.4518 23.3115 18.8239 23.5806 18.0008 23.5806C17.9217 23.5806 17.8373 23.5806 17.7581 23.5754C16.191 23.4751 14.7347 22.863 13.6425 22.3407C10.656 20.8949 8.03366 18.8424 5.8545 16.2411C4.05524 14.0725 2.85222 12.0675 2.05548 9.9147C1.56477 8.60087 1.38537 7.57725 1.46452 6.61166C1.51728 5.99432 1.75472 5.48251 2.19266 5.04456L3.99192 3.2453C4.25047 3.00259 4.52484 2.87068 4.79394 2.87068C5.12636 2.87068 5.39545 3.07118 5.5643 3.24003C5.56957 3.2453 5.57485 3.25058 5.58013 3.25586C5.90199 3.55661 6.20802 3.86792 6.52988 4.20034C6.69345 4.36918 6.8623 4.53803 7.03114 4.71215L8.47161 6.15261C9.03091 6.71191 9.03091 7.229 8.47161 7.7883C8.31859 7.94132 8.17085 8.09433 8.01783 8.24207C7.57461 8.69585 7.1525 9.11796 6.69345 9.52952C6.6829 9.54007 6.67235 9.54535 6.66707 9.5559C6.2133 10.0097 6.29772 10.4529 6.3927 10.7536C6.39797 10.7695 6.40325 10.7853 6.40853 10.8011C6.78315 11.7087 7.31079 12.5635 8.11281 13.5818L8.11809 13.5871C9.57438 15.3811 11.1098 16.7793 12.8035 17.8504C13.0199 17.9876 13.2415 18.0984 13.4525 18.204C13.6425 18.2989 13.8219 18.3886 13.9749 18.4836C13.996 18.4942 14.0171 18.51 14.0382 18.5205C14.2176 18.6102 14.3865 18.6525 14.5606 18.6525C14.9985 18.6525 15.2729 18.3781 15.3626 18.2884L17.1671 16.4838C17.3465 16.3044 17.6315 16.0881 17.9639 16.0881C18.291 16.0881 18.5601 16.2939 18.7237 16.4733C18.729 16.4786 18.729 16.4786 18.7342 16.4838L21.6416 19.3912C22.185 19.9293 22.185 20.4834 21.6468 21.0427Z" fill="#03013D"/>
<path d="M13.5106 5.94688C14.893 6.17904 16.1488 6.83332 17.1513 7.83584C18.1538 8.83836 18.8028 10.0941 19.0403 11.4766C19.0983 11.8248 19.3991 12.0675 19.742 12.0675C19.7843 12.0675 19.8212 12.0622 19.8634 12.057C20.2539 11.9937 20.5124 11.6243 20.4491 11.2339C20.1642 9.56123 19.3727 8.03634 18.1644 6.82804C16.9561 5.61974 15.4312 4.82828 13.7586 4.54335C13.3681 4.48003 13.004 4.73858 12.9355 5.12376C12.8669 5.50894 13.1201 5.88356 13.5106 5.94688Z" fill="#03013D"/>
<path d="M24.971 11.028C24.5014 8.27374 23.2034 5.76744 21.2089 3.77295C19.2144 1.77846 16.7081 0.480461 13.9538 0.0108597C13.5686 -0.0577338 13.2045 0.206087 13.136 0.591266C13.0726 0.981721 13.3312 1.34579 13.7216 1.41439C16.1804 1.83122 18.4229 2.99731 20.2064 4.77547C21.9898 6.5589 23.1506 8.80138 23.5674 11.2602C23.6255 11.6084 23.9262 11.8511 24.2692 11.8511C24.3114 11.8511 24.3483 11.8459 24.3906 11.8406C24.7757 11.7826 25.0396 11.4132 24.971 11.028Z" fill="#03013D"/>
</g>
<defs>
<clipPath id="clip0">
<rect width="25" height="25" fill="white"/>
</clipPath>
</defs>
</svg>
