<svg xmlns="http://www.w3.org/2000/svg" viewBox="0 0 36.96 50"><defs><style>.cls-1,.cls-2,.cls-3{fill:#fff;}.cls-2,.cls-3{stroke:#fff;stroke-miterlimit:10;}.cls-2{stroke-width:1.2px;}.cls-3{stroke-width:1.3px;}</style></defs><title>Ресурс 4</title><g id="Слой_2" data-name="Слой 2"><g id="Слой_1-2" data-name="Слой 1"><path class="cls-1" d="M28.23,0H3.07A3.08,3.08,0,0,0,0,3.07V46.93A3.07,3.07,0,0,0,3.07,50H33.89A3.07,3.07,0,0,0,37,46.93V9.48ZM29,4.59l3.83,4.15H29Zm5.43,42.34a.5.5,0,0,1-.49.5H3.07a.5.5,0,0,1-.5-.5V3.07a.49.49,0,0,1,.5-.49H26.38V10a1.29,1.29,0,0,0,1.29,1.29h6.71Z"/><path class="cls-2" d="M18.35,32.23a.67.67,0,0,1-.67-.66V16.66a.67.67,0,0,1,1.34,0V31.57A.66.66,0,0,1,18.35,32.23Z"/><path class="cls-3" d="M18.36,34.23a.67.67,0,0,1-.47-.2l-5.7-5.7a.66.66,0,0,1,.94-.93l5.23,5.23,5.23-5.23a.66.66,0,1,1,.94.93L18.83,34A.67.67,0,0,1,18.36,34.23Z"/></g></g></svg>