<svg width="666" height="62" viewBox="0 0 666 62" fill="none" xmlns="http://www.w3.org/2000/svg">
<path d="M39.496 1.32V51H28.552V9.24H11.128V51H0.184V1.32H39.496ZM51.9829 51V1.32C56.4469 0.887996 62.7589 0.671996 70.9189 0.671996C77.8309 0.671996 82.5589 1.8 85.1029 4.056C87.6949 6.312 88.9909 10.584 88.9909 16.872C88.9909 23.16 87.7669 27.456 85.3189 29.76C82.9189 32.016 78.5989 33.144 72.3589 33.144C69.1909 33.144 66.0709 32.952 62.9989 32.568V51H51.9829ZM62.9989 24.72H70.6309C73.5109 24.672 75.4549 24.12 76.4629 23.064C77.4709 22.008 77.9749 19.944 77.9749 16.872C77.9749 13.8 77.4709 11.736 76.4629 10.68C75.4549 9.624 73.5109 9.096 70.6309 9.096L62.9989 9.168V24.72ZM101.39 5.928C104.51 2.232 110.054 0.383999 118.022 0.383999C125.99 0.383999 131.534 2.232 134.654 5.928C137.774 9.576 139.334 16.32 139.334 26.16C139.334 36 137.774 42.768 134.654 46.464C131.534 50.112 125.99 51.936 118.022 51.936C110.054 51.936 104.51 50.112 101.39 46.464C98.3181 42.768 96.7821 36 96.7821 26.16C96.7821 16.32 98.3181 9.576 101.39 5.928ZM125.654 12.768C124.31 10.416 121.766 9.24 118.022 9.24C114.278 9.24 111.71 10.416 110.318 12.768C108.974 15.12 108.302 19.584 108.302 26.16C108.302 32.736 108.974 37.2 110.318 39.552C111.71 41.904 114.278 43.08 118.022 43.08C121.766 43.08 124.31 41.904 125.654 39.552C127.046 37.2 127.742 32.736 127.742 26.16C127.742 19.584 127.046 15.12 125.654 12.768ZM184.017 41.712L184.953 49.848C180.633 51.192 175.329 51.864 169.041 51.864C161.361 51.864 155.961 49.944 152.841 46.104C149.721 42.264 148.161 35.616 148.161 26.16C148.161 16.704 149.721 10.056 152.841 6.216C155.961 2.376 161.361 0.455998 169.041 0.455998C174.609 0.455998 179.577 1.008 183.945 2.112L183.009 10.32C179.121 10.08 174.465 9.96 169.041 9.96C165.441 9.96 162.969 11.112 161.625 13.416C160.329 15.672 159.681 19.92 159.681 26.16C159.681 32.4 160.329 36.672 161.625 38.976C162.969 41.232 165.441 42.36 169.041 42.36C175.713 42.36 180.705 42.144 184.017 41.712ZM231.1 10.248H216.268V51H205.252V10.248H190.42V1.32H231.1V10.248ZM242.026 5.928C245.146 2.232 250.69 0.383999 258.658 0.383999C266.626 0.383999 272.17 2.232 275.29 5.928C278.41 9.576 279.97 16.32 279.97 26.16C279.97 36 278.41 42.768 275.29 46.464C272.17 50.112 266.626 51.936 258.658 51.936C250.69 51.936 245.146 50.112 242.026 46.464C238.954 42.768 237.418 36 237.418 26.16C237.418 16.32 238.954 9.576 242.026 5.928ZM266.29 12.768C264.946 10.416 262.402 9.24 258.658 9.24C254.914 9.24 252.346 10.416 250.954 12.768C249.61 15.12 248.938 19.584 248.938 26.16C248.938 32.736 249.61 37.2 250.954 39.552C252.346 41.904 254.914 43.08 258.658 43.08C262.402 43.08 264.946 41.904 266.29 39.552C267.682 37.2 268.378 32.736 268.378 26.16C268.378 19.584 267.682 15.12 266.29 12.768ZM349.19 51H338.678V21.336C338.678 19.128 338.894 16.896 339.326 14.64H338.822C338.102 16.848 337.166 19.032 336.014 21.192L319.238 51H308.366V1.32H318.806V30.48C318.806 32.544 318.614 34.848 318.23 37.392H318.662C319.286 35.568 320.246 33.408 321.542 30.912L338.318 1.32H349.19V51ZM416.779 1.32L404.611 38.184C403.171 42.552 401.539 45.84 399.715 48.048C397.891 50.208 395.347 51.432 392.083 51.72C388.819 52.008 384.835 51.648 380.131 50.64L381.355 42.864C386.011 43.104 388.963 43.032 390.211 42.648C391.507 42.216 392.611 40.824 393.523 38.472L394.099 36.888H391.435C388.219 36.888 386.083 35.232 385.027 31.92L374.803 1.32H386.035L393.883 27.6C394.027 28.176 394.459 28.464 395.179 28.464H396.979L405.547 1.32H416.779ZM458.341 61.872L457.477 51H424.573L423.709 61.872H415.933V43.08H421.189C424.597 34.584 426.757 24.12 427.669 11.688C427.909 8.568 429.061 6.072 431.125 4.2C433.189 2.28 435.901 1.32 439.261 1.32H459.637V43.08H466.117V61.872H458.341ZM448.693 43.08V9.24H442.285C440.845 9.24 439.789 9.576 439.117 10.248C438.493 10.872 438.133 11.952 438.037 13.488C437.461 20.448 436.693 26.16 435.733 30.624C434.773 35.088 433.357 39.24 431.485 43.08H448.693ZM477.596 5.928C480.716 2.232 486.26 0.383999 494.228 0.383999C502.196 0.383999 507.74 2.232 510.86 5.928C513.98 9.576 515.54 16.32 515.54 26.16C515.54 36 513.98 42.768 510.86 46.464C507.74 50.112 502.196 51.936 494.228 51.936C486.26 51.936 480.716 50.112 477.596 46.464C474.524 42.768 472.988 36 472.988 26.16C472.988 16.32 474.524 9.576 477.596 5.928ZM501.86 12.768C500.516 10.416 497.972 9.24 494.228 9.24C490.484 9.24 487.916 10.416 486.524 12.768C485.18 15.12 484.508 19.584 484.508 26.16C484.508 32.736 485.18 37.2 486.524 39.552C487.916 41.904 490.484 43.08 494.228 43.08C497.972 43.08 500.516 41.904 501.86 39.552C503.252 37.2 503.948 32.736 503.948 26.16C503.948 19.584 503.252 15.12 501.86 12.768ZM537.11 21.48H544.67C551.534 21.48 556.31 22.584 558.998 24.792C561.686 26.952 563.03 30.888 563.03 36.6C563.03 39.816 562.67 42.432 561.95 44.448C561.23 46.464 560.03 48 558.35 49.056C556.67 50.064 554.798 50.736 552.734 51.072C550.67 51.456 547.958 51.648 544.598 51.648C537.686 51.648 531.614 51.432 526.382 51H526.094V1.32C531.47 0.983997 537.11 0.815998 543.014 0.815998C547.814 0.815998 553.454 0.983997 559.934 1.32L559.07 9.744H537.11V21.48ZM537.11 43.224H544.67C547.694 43.224 549.662 42.768 550.574 41.856C551.534 40.944 552.014 39.048 552.014 36.168C552.014 33.336 551.534 31.44 550.574 30.48C549.662 29.472 547.694 28.968 544.67 28.968H537.11V43.224ZM612.361 1.32V51H601.345V28.824H583.849V51H572.905V1.32H583.849V20.328H601.345V1.32H612.361ZM627.724 5.928C630.844 2.232 636.388 0.383999 644.356 0.383999C652.324 0.383999 657.868 2.232 660.988 5.928C664.108 9.576 665.668 16.32 665.668 26.16C665.668 36 664.108 42.768 660.988 46.464C657.868 50.112 652.324 51.936 644.356 51.936C636.388 51.936 630.844 50.112 627.724 46.464C624.652 42.768 623.116 36 623.116 26.16C623.116 16.32 624.652 9.576 627.724 5.928ZM651.988 12.768C650.644 10.416 648.1 9.24 644.356 9.24C640.612 9.24 638.044 10.416 636.652 12.768C635.308 15.12 634.636 19.584 634.636 26.16C634.636 32.736 635.308 37.2 636.652 39.552C638.044 41.904 640.612 43.08 644.356 43.08C648.1 43.08 650.644 41.904 651.988 39.552C653.38 37.2 654.076 32.736 654.076 26.16C654.076 19.584 653.38 15.12 651.988 12.768Z" fill="url(#paint0_linear)"/>
<defs>
<linearGradient id="paint0_linear" x1="333.5" y1="-22" x2="334" y2="74" gradientUnits="userSpaceOnUse">
<stop stop-color="white" stop-opacity="0.35"/>
<stop offset="1" stop-color="white" stop-opacity="0"/>
</linearGradient>
</defs>
</svg>
