<svg width="50" height="50" viewBox="0 0 50 50" fill="none" xmlns="http://www.w3.org/2000/svg">
<path d="M34.7522 0H9.58713C7.89743 0 6.52148 1.3769 6.52148 3.06628V46.9332C6.52148 48.6251 7.89743 49.9999 9.58713 49.9999H40.4121C42.1033 49.9999 43.478 48.6251 43.478 46.9332V9.48116L34.7522 0ZM35.4758 4.58832L39.3004 8.74495H35.4758V4.58832ZM40.9032 46.9333C40.9032 47.2034 40.6821 47.4251 40.4107 47.4251H9.58713C9.31619 47.4251 9.09636 47.2034 9.09636 46.9333V3.06628C9.09636 2.79556 9.31619 2.57615 9.58713 2.57615H32.8997V10.0329C32.8997 10.7429 33.478 11.3184 34.1884 11.3184H40.9032V46.9333ZM13.6385 13.6946H35.5033C36.036 13.6946 36.468 14.1266 36.468 14.6593C36.468 15.1919 36.036 15.6239 35.5033 15.6239H13.6385C13.1059 15.6239 12.6738 15.1919 12.6738 14.6593C12.6738 14.1267 13.1059 13.6946 13.6385 13.6946ZM36.468 21.1417C36.468 21.6743 36.036 22.1064 35.5033 22.1064H13.6385C13.1059 22.1064 12.6738 21.6744 12.6738 21.1417C12.6738 20.6091 13.1059 20.1771 13.6385 20.1771H35.5033C36.036 20.1771 36.468 20.6092 36.468 21.1417ZM36.468 27.4119C36.468 27.9445 36.036 28.3765 35.5033 28.3765H13.6385C13.1059 28.3765 12.6738 27.9445 12.6738 27.4119C12.6738 26.8793 13.1059 26.4472 13.6385 26.4472H35.5033C36.036 26.4472 36.468 26.8793 36.468 27.4119ZM36.468 33.7888C36.468 34.3215 36.036 34.7535 35.5033 34.7535H13.6385C13.1059 34.7535 12.6738 34.3215 12.6738 33.7888C12.6738 33.2562 13.1059 32.8242 13.6385 32.8242H35.5033C36.036 32.8242 36.468 33.2562 36.468 33.7888Z" fill="white"/>
</svg>
