<svg xmlns="http://www.w3.org/2000/svg" viewBox="0 0 24.15 26.41"><defs><style>.cls-1,.cls-2,.cls-3{fill:#03013d;}.cls-1,.cls-3{stroke:#03013d;stroke-width:0.3px;}.cls-1{stroke-miterlimit:10;}.cls-3{stroke-linecap:round;stroke-linejoin:round;}</style></defs><title>Ресурс 12</title><g id="Слой_2" data-name="Слой 2"><g id="Слой_1-2" data-name="Слой 1"><g id="Новый_символ" data-name="Новый символ"><g id="Новый_символ_2" data-name="Новый символ 2"><g id="Новый_символ_1" data-name="Новый символ 1"><path class="cls-1" d="M4.52,14.39h7.62a.62.62,0,0,0,.61-.61.61.61,0,0,0-.61-.61H4.52a.61.61,0,0,0-.61.61A.61.61,0,0,0,4.52,14.39Z"/><path class="cls-1" d="M4.52,9.43h7.62a.61.61,0,0,0,.61-.61.62.62,0,0,0-.61-.61H4.52a.61.61,0,0,0-.61.61A.61.61,0,0,0,4.52,9.43Z"/><path class="cls-1" d="M15.29,17.79H4.47a.61.61,0,0,0,0,1.22H15.29a.61.61,0,0,0,0-1.22Z"/><path class="cls-2" d="M24.05,20.64,22.1,18.69l1.4-.8a.36.36,0,0,0,.16-.31.33.33,0,0,0-.21-.28l-6.2-2.47a.32.32,0,0,0-.42.42l2.47,6.2a.33.33,0,0,0,.28.21.35.35,0,0,0,.31-.16l.8-1.4,1.95,1.95a.31.31,0,0,0,.46,0l.95-.95A.32.32,0,0,0,24.05,20.64Z"/><path class="cls-3" d="M17.61,25.07H3.33a1.94,1.94,0,0,1-2-1.9V3.23a1.94,1.94,0,0,1,2-1.9h9.3V5a3.13,3.13,0,0,0,3.18,3.08h3.76v6.22h1.22V7.46A.6.6,0,0,0,20.61,7L13.69.33h0a.59.59,0,0,0-.44-.18H3.33A3.13,3.13,0,0,0,.15,3.24V23.17a3.13,3.13,0,0,0,3.18,3.09H17.61a3.16,3.16,0,0,0,3.09-2.37H19.41A2,2,0,0,1,17.61,25.07ZM13.85,2.17l4.87,4.71H15.81a1.93,1.93,0,0,1-2-1.9Z"/></g></g></g></g></g></svg>